<svg width="28" height="27" viewBox="0 0 28 27" fill="none" xmlns="http://www.w3.org/2000/svg">
<path d="M27.3081 13.5652C27.3081 6.27684 21.3996 0.368408 14.1113 0.368408C6.82298 0.368408 0.914551 6.27674 0.914551 13.5652C0.914551 20.152 5.74044 25.6116 12.0493 26.6016V17.3798H8.69857V13.5652H12.0493V10.6577C12.0493 7.35031 14.0195 5.52339 17.0339 5.52339C18.4778 5.52339 19.988 5.78114 19.988 5.78114V9.02877H18.324C16.6845 9.02877 16.1733 10.0461 16.1733 11.0897V13.5652H19.8333L19.2482 17.3798H16.1733V26.6016C22.4822 25.6116 27.3081 20.1521 27.3081 13.5652Z" fill="#1877F2"/>
<path d="M19.2482 17.3793L19.8332 13.5646H16.1732V11.0892C16.1732 10.0454 16.6845 9.02821 18.3239 9.02821H19.9879V5.78058C19.9879 5.78058 18.4777 5.52283 17.0338 5.52283C14.0195 5.52283 12.0492 7.34975 12.0492 10.6572V13.5646H8.69849V17.3793H12.0492V26.601C12.7313 26.7079 13.4208 26.7615 14.1112 26.7613C14.8017 26.7616 15.4911 26.708 16.1732 26.601V17.3793H19.2482Z" fill="white"/>
</svg>
