<svg width="26" height="27" viewBox="0 0 26 27" fill="none" xmlns="http://www.w3.org/2000/svg">
<path d="M19.7483 0.368408H6.04539C2.70661 0.368408 0 3.13796 0 6.55439V20.5759C0 23.9924 2.70661 26.7619 6.04539 26.7619H19.7483C23.087 26.7619 25.7937 23.9924 25.7937 20.5759V6.55439C25.7937 3.13796 23.087 0.368408 19.7483 0.368408Z" fill="url(#paint0_radial_395_375)"/>
<path d="M19.7483 0.368408H6.04539C2.70661 0.368408 0 3.13796 0 6.55439V20.5759C0 23.9924 2.70661 26.7619 6.04539 26.7619H19.7483C23.087 26.7619 25.7937 23.9924 25.7937 20.5759V6.55439C25.7937 3.13796 23.087 0.368408 19.7483 0.368408Z" fill="url(#paint1_radial_395_375)"/>
<path d="M12.8978 3.255C10.1615 3.255 9.81802 3.26727 8.74335 3.31728C7.6707 3.36759 6.9385 3.54131 6.29789 3.79628C5.63511 4.05959 5.07299 4.41189 4.51299 4.98512C3.95248 5.55825 3.6082 6.13344 3.35006 6.81132C3.10018 7.46704 2.93021 8.21657 2.88194 9.31365C2.83388 10.4134 2.82129 10.765 2.82129 13.5651C2.82129 16.3652 2.83338 16.7155 2.88215 17.8151C2.93152 18.9127 3.10129 19.662 3.35026 20.3175C3.60779 20.9957 3.95208 21.5709 4.51228 22.1439C5.07219 22.7174 5.63431 23.0705 6.29658 23.3339C6.93769 23.5888 7.66999 23.7625 8.74244 23.8129C9.81721 23.8629 10.1604 23.8751 12.8966 23.8751C15.6333 23.8751 15.9756 23.8629 17.0503 23.8129C18.123 23.7625 18.856 23.5888 19.4971 23.3339C20.1596 23.0705 20.7209 22.7174 21.2807 22.1439C21.8412 21.5709 22.1854 20.9957 22.4436 20.3178C22.6913 19.662 22.8613 18.9125 22.9117 17.8153C22.96 16.7157 22.9726 16.3652 22.9726 13.5651C22.9726 10.765 22.96 10.4136 22.9117 9.31386C22.8613 8.21626 22.6913 7.46714 22.4436 6.81163C22.1854 6.13344 21.8412 5.55825 21.2807 4.98512C20.7203 4.41168 20.1598 4.05939 19.4965 3.79638C18.8542 3.54131 18.1216 3.36749 17.0489 3.31728C15.9741 3.26727 15.632 3.255 12.8947 3.255H12.8978ZM11.994 5.11296C12.2623 5.11255 12.5616 5.11296 12.8978 5.11296C15.5881 5.11296 15.9069 5.12286 16.9693 5.17225C17.9517 5.21823 18.4849 5.38618 18.8401 5.52732C19.3103 5.71414 19.6455 5.93755 19.9979 6.29851C20.3506 6.65935 20.5688 7.00298 20.7519 7.48415C20.8898 7.84706 21.0542 8.39266 21.0989 9.39789C21.1472 10.4848 21.1577 10.8112 21.1577 13.5627C21.1577 16.3142 21.1472 16.6407 21.0989 17.7275C21.054 18.7327 20.8898 19.2783 20.7519 19.6413C20.5693 20.1225 20.3506 20.4651 19.9979 20.8258C19.6453 21.1866 19.3105 21.4099 18.8401 21.5968C18.4853 21.7386 17.9517 21.9061 16.9693 21.9521C15.9071 22.0015 15.5881 22.0122 12.8978 22.0122C10.2074 22.0122 9.88855 22.0015 8.82647 21.9521C7.8441 21.9057 7.3109 21.7378 6.95543 21.5966C6.4853 21.4097 6.14937 21.1864 5.79673 20.8255C5.44408 20.4647 5.22584 20.1219 5.04277 19.6405C4.90483 19.2775 4.7405 18.7319 4.69576 17.7267C4.6475 16.6398 4.63783 16.3134 4.63783 13.5601C4.63783 10.8069 4.6475 10.4822 4.69576 9.39531C4.7407 8.39009 4.90483 7.84448 5.04277 7.48106C5.22544 6.99989 5.44408 6.65626 5.79683 6.29541C6.14948 5.93456 6.4853 5.71115 6.95553 5.52392C7.31069 5.38216 7.8441 5.21462 8.82647 5.16843C9.75595 5.12544 10.1162 5.11255 11.994 5.11039V5.11296ZM18.2762 6.82483C17.6087 6.82483 17.0671 7.37847 17.0671 8.06161C17.0671 8.74465 17.6087 9.29881 18.2762 9.29881C18.9437 9.29881 19.4853 8.74465 19.4853 8.06161C19.4853 7.37858 18.9437 6.82442 18.2762 6.82442V6.82483ZM12.8978 8.27039C10.0404 8.27039 7.72359 10.6411 7.72359 13.5651C7.72359 16.4891 10.0404 18.8586 12.8978 18.8586C15.7554 18.8586 18.0714 16.4891 18.0714 13.5651C18.0714 10.6412 15.7552 8.27039 12.8976 8.27039H12.8978ZM12.8978 10.1283C14.7527 10.1283 16.2565 11.6669 16.2565 13.5651C16.2565 15.463 14.7527 17.0018 12.8978 17.0018C11.0429 17.0018 9.53933 15.463 9.53933 13.5651C9.53933 11.6669 11.0429 10.1283 12.8978 10.1283Z" fill="white"/>
<defs>
<radialGradient id="paint0_radial_395_375" cx="0" cy="0" r="1" gradientUnits="userSpaceOnUse" gradientTransform="translate(6.85144 28.7947) rotate(-90) scale(26.1579 23.776)">
<stop stop-color="#FFDD55"/>
<stop offset="0.1" stop-color="#FFDD55"/>
<stop offset="0.5" stop-color="#FF543E"/>
<stop offset="1" stop-color="#C837AB"/>
</radialGradient>
<radialGradient id="paint1_radial_395_375" cx="0" cy="0" r="1" gradientUnits="userSpaceOnUse" gradientTransform="translate(-4.32054 2.26967) rotate(78.9318) scale(11.6826 47.1433)">
<stop stop-color="#3771C8"/>
<stop offset="0.128" stop-color="#3771C8"/>
<stop offset="1" stop-color="#6600FF" stop-opacity="0"/>
</radialGradient>
</defs>
</svg>
