<svg width="31" height="31" viewBox="0 0 31 31" fill="none" xmlns="http://www.w3.org/2000/svg">
<path d="M0.870215 14.9364C0.869512 17.4767 1.53326 19.9571 2.79537 22.1433L0.749512 29.6131L8.39389 27.6087C10.5082 28.7597 12.8772 29.3629 15.2845 29.363H15.2909C23.2379 29.363 29.707 22.8962 29.7104 14.9478C29.712 11.0962 28.2134 7.47436 25.4906 4.74951C22.7684 2.0249 19.1479 0.523608 15.2903 0.521851C7.34225 0.521851 0.873613 6.98826 0.870332 14.9364" fill="url(#paint0_linear_395_389)"/>
<path d="M0.355615 14.9316C0.354795 17.5633 1.04233 20.1324 2.34945 22.3969L0.230225 30.1344L8.14871 28.0582C10.3305 29.2478 12.787 29.875 15.2866 29.8759H15.293C23.5252 29.8759 30.2267 23.1765 30.2303 14.9435C30.2317 10.9535 28.6792 7.20153 25.8592 4.37907C23.0388 1.55695 19.2888 0.00164063 15.293 0C7.05945 0 0.358897 6.69844 0.355615 14.9316ZM5.07124 22.0069L4.77558 21.5376C3.53269 19.5613 2.87667 17.2776 2.87761 14.9325C2.88031 8.08934 8.44953 2.52188 15.2977 2.52188C18.6141 2.52328 21.7309 3.8161 24.0751 6.16172C26.4192 8.50759 27.7091 11.6259 27.7083 14.9426C27.7052 21.7858 22.1359 27.3539 15.293 27.3539H15.2881C13.06 27.3528 10.8748 26.7544 8.96914 25.6237L8.51562 25.3547L3.81663 26.5867L5.07124 22.0068V22.0069Z" fill="white"/>
<path d="M11.5598 8.68921C11.2802 8.06777 10.9859 8.05523 10.72 8.04433C10.5023 8.03495 10.2534 8.03566 10.0047 8.03566C9.75578 8.03566 9.35137 8.12929 9.00953 8.50253C8.66734 8.87613 7.70312 9.77894 7.70312 11.6152C7.70312 13.4515 9.04059 15.2261 9.22703 15.4753C9.41371 15.7241 11.809 19.6129 15.6026 21.1089C18.7554 22.3521 19.397 22.1048 20.0813 22.0425C20.7657 21.9804 22.2896 21.1399 22.6005 20.2684C22.9116 19.397 22.9116 18.65 22.8183 18.4939C22.7251 18.3384 22.4761 18.245 22.1029 18.0585C21.7295 17.8718 19.8946 16.9689 19.5525 16.8443C19.2104 16.7198 18.9616 16.6577 18.7127 17.0314C18.4638 17.4046 17.749 18.245 17.5312 18.4939C17.3136 18.7434 17.0957 18.7745 16.7226 18.5878C16.3491 18.4005 15.1471 18.0069 13.7211 16.7355C12.6115 15.7462 11.8625 14.5246 11.6447 14.1509C11.427 13.7777 11.6214 13.5755 11.8086 13.3895C11.9763 13.2223 12.1819 12.9537 12.3687 12.7358C12.5548 12.5178 12.6169 12.3623 12.7414 12.1134C12.8659 11.8643 12.8036 11.6463 12.7104 11.4596C12.6169 11.273 11.8916 9.42714 11.5598 8.68921Z" fill="white"/>
<defs>
<linearGradient id="paint0_linear_395_389" x1="1448.8" y1="2909.65" x2="1448.8" y2="0.521851" gradientUnits="userSpaceOnUse">
<stop stop-color="#E0E0E0"/>
<stop offset="1" stop-color="#60D669"/>
</linearGradient>
</defs>
</svg>
